<mxfile host="app.diagrams.net" agent="Mozilla/5.0 (Macintosh; Intel Mac OS X 10_15_7) AppleWebKit/537.36 (KHTML, like Gecko) Chrome/134.0.0.0 Safari/537.36" version="26.2.3">
  <diagram id="sIrAJbi1N2dauAAnIIgw" name="Page-1">
    <mxGraphModel dx="2547" dy="1134" grid="1" gridSize="10" guides="1" tooltips="1" connect="1" arrows="1" fold="1" page="1" pageScale="1" pageWidth="850" pageHeight="1100" math="0" shadow="0">
      <root>
        <mxCell id="0" />
        <mxCell id="1" parent="0" />
        <mxCell id="MqyxkdWR4Al2x5i4BDs6-40" style="edgeStyle=orthogonalEdgeStyle;rounded=0;orthogonalLoop=1;jettySize=auto;html=1;entryX=0;entryY=0.5;entryDx=0;entryDy=0;" parent="1" source="MqyxkdWR4Al2x5i4BDs6-1" target="MqyxkdWR4Al2x5i4BDs6-10" edge="1">
          <mxGeometry relative="1" as="geometry" />
        </mxCell>
        <mxCell id="MqyxkdWR4Al2x5i4BDs6-45" style="edgeStyle=orthogonalEdgeStyle;rounded=0;orthogonalLoop=1;jettySize=auto;html=1;exitX=1;exitY=1;exitDx=0;exitDy=0;entryX=0;entryY=0.25;entryDx=0;entryDy=0;" parent="1" source="MqyxkdWR4Al2x5i4BDs6-1" target="MqyxkdWR4Al2x5i4BDs6-19" edge="1">
          <mxGeometry relative="1" as="geometry" />
        </mxCell>
        <mxCell id="MqyxkdWR4Al2x5i4BDs6-1" value="" style="rounded=0;whiteSpace=wrap;html=1;" parent="1" vertex="1">
          <mxGeometry x="-820" y="170" width="530" height="330" as="geometry" />
        </mxCell>
        <mxCell id="MqyxkdWR4Al2x5i4BDs6-2" value="&lt;font style=&quot;font-size: 28px;&quot;&gt;Logical Gate&lt;/font&gt;" style="text;html=1;align=center;verticalAlign=middle;whiteSpace=wrap;rounded=0;" parent="1" vertex="1">
          <mxGeometry x="-810" y="180" width="220" height="70" as="geometry" />
        </mxCell>
        <mxCell id="MqyxkdWR4Al2x5i4BDs6-3" value="Play" style="rounded=1;whiteSpace=wrap;html=1;" parent="1" vertex="1">
          <mxGeometry x="-790" y="260" width="110" height="40" as="geometry" />
        </mxCell>
        <mxCell id="MqyxkdWR4Al2x5i4BDs6-4" value="Settings" style="rounded=1;whiteSpace=wrap;html=1;" parent="1" vertex="1">
          <mxGeometry x="-790" y="340" width="110" height="40" as="geometry" />
        </mxCell>
        <mxCell id="MqyxkdWR4Al2x5i4BDs6-5" value="Quit" style="rounded=1;whiteSpace=wrap;html=1;" parent="1" vertex="1">
          <mxGeometry x="-790" y="420" width="110" height="40" as="geometry" />
        </mxCell>
        <mxCell id="MqyxkdWR4Al2x5i4BDs6-10" value="" style="rounded=0;whiteSpace=wrap;html=1;" parent="1" vertex="1">
          <mxGeometry x="-120" y="170" width="530" height="330" as="geometry" />
        </mxCell>
        <mxCell id="MqyxkdWR4Al2x5i4BDs6-11" value="&lt;font style=&quot;font-size: 28px;&quot;&gt;Logical Gate&lt;/font&gt;" style="text;html=1;align=center;verticalAlign=middle;whiteSpace=wrap;rounded=0;" parent="1" vertex="1">
          <mxGeometry x="-110" y="180" width="220" height="70" as="geometry" />
        </mxCell>
        <mxCell id="MqyxkdWR4Al2x5i4BDs6-12" value="Play" style="rounded=1;whiteSpace=wrap;html=1;" parent="1" vertex="1">
          <mxGeometry x="-90" y="260" width="110" height="40" as="geometry" />
        </mxCell>
        <mxCell id="MqyxkdWR4Al2x5i4BDs6-13" value="Settings" style="rounded=1;whiteSpace=wrap;html=1;" parent="1" vertex="1">
          <mxGeometry x="-90" y="340" width="110" height="40" as="geometry" />
        </mxCell>
        <mxCell id="MqyxkdWR4Al2x5i4BDs6-14" value="Quit" style="rounded=1;whiteSpace=wrap;html=1;" parent="1" vertex="1">
          <mxGeometry x="-90" y="420" width="110" height="40" as="geometry" />
        </mxCell>
        <mxCell id="MqyxkdWR4Al2x5i4BDs6-19" value="" style="rounded=0;whiteSpace=wrap;html=1;" parent="1" vertex="1">
          <mxGeometry x="-120" y="670" width="530" height="330" as="geometry" />
        </mxCell>
        <mxCell id="MqyxkdWR4Al2x5i4BDs6-20" value="&lt;font style=&quot;font-size: 28px;&quot;&gt;Logical Gate&lt;/font&gt;" style="text;html=1;align=center;verticalAlign=middle;whiteSpace=wrap;rounded=0;" parent="1" vertex="1">
          <mxGeometry x="-110" y="680" width="220" height="70" as="geometry" />
        </mxCell>
        <mxCell id="MqyxkdWR4Al2x5i4BDs6-21" value="Play" style="rounded=1;whiteSpace=wrap;html=1;" parent="1" vertex="1">
          <mxGeometry x="-90" y="760" width="110" height="40" as="geometry" />
        </mxCell>
        <mxCell id="MqyxkdWR4Al2x5i4BDs6-22" value="Settings" style="rounded=1;whiteSpace=wrap;html=1;" parent="1" vertex="1">
          <mxGeometry x="-90" y="840" width="110" height="40" as="geometry" />
        </mxCell>
        <mxCell id="MqyxkdWR4Al2x5i4BDs6-23" value="Quit" style="rounded=1;whiteSpace=wrap;html=1;" parent="1" vertex="1">
          <mxGeometry x="-90" y="920" width="110" height="40" as="geometry" />
        </mxCell>
        <mxCell id="MqyxkdWR4Al2x5i4BDs6-28" value="&lt;font style=&quot;font-size: 10px;&quot;&gt;Master Volume&lt;/font&gt;" style="text;html=1;align=center;verticalAlign=middle;whiteSpace=wrap;rounded=0;" parent="1" vertex="1">
          <mxGeometry x="40" y="750" width="90" height="30" as="geometry" />
        </mxCell>
        <mxCell id="MqyxkdWR4Al2x5i4BDs6-29" value="&lt;font style=&quot;font-size: 10px;&quot;&gt;Music Volume&lt;/font&gt;" style="text;html=1;align=center;verticalAlign=middle;whiteSpace=wrap;rounded=0;" parent="1" vertex="1">
          <mxGeometry x="40" y="820" width="90" height="30" as="geometry" />
        </mxCell>
        <mxCell id="MqyxkdWR4Al2x5i4BDs6-30" value="&lt;font style=&quot;font-size: 10px;&quot;&gt;Sound FX Volume&lt;/font&gt;" style="text;html=1;align=center;verticalAlign=middle;whiteSpace=wrap;rounded=0;" parent="1" vertex="1">
          <mxGeometry x="40" y="890" width="90" height="30" as="geometry" />
        </mxCell>
        <mxCell id="MqyxkdWR4Al2x5i4BDs6-34" value="" style="ellipse;whiteSpace=wrap;html=1;aspect=fixed;" parent="1" vertex="1">
          <mxGeometry x="190" y="780" width="20" height="20" as="geometry" />
        </mxCell>
        <mxCell id="MqyxkdWR4Al2x5i4BDs6-35" value="" style="endArrow=none;html=1;rounded=0;" parent="1" edge="1">
          <mxGeometry width="50" height="50" relative="1" as="geometry">
            <mxPoint x="50" y="790" as="sourcePoint" />
            <mxPoint x="190" y="790" as="targetPoint" />
          </mxGeometry>
        </mxCell>
        <mxCell id="MqyxkdWR4Al2x5i4BDs6-36" value="" style="ellipse;whiteSpace=wrap;html=1;aspect=fixed;" parent="1" vertex="1">
          <mxGeometry x="190" y="850" width="20" height="20" as="geometry" />
        </mxCell>
        <mxCell id="MqyxkdWR4Al2x5i4BDs6-37" value="" style="endArrow=none;html=1;rounded=0;" parent="1" edge="1">
          <mxGeometry width="50" height="50" relative="1" as="geometry">
            <mxPoint x="50" y="860" as="sourcePoint" />
            <mxPoint x="190" y="860" as="targetPoint" />
          </mxGeometry>
        </mxCell>
        <mxCell id="MqyxkdWR4Al2x5i4BDs6-38" value="" style="ellipse;whiteSpace=wrap;html=1;aspect=fixed;" parent="1" vertex="1">
          <mxGeometry x="190" y="930" width="20" height="20" as="geometry" />
        </mxCell>
        <mxCell id="MqyxkdWR4Al2x5i4BDs6-39" value="" style="endArrow=none;html=1;rounded=0;" parent="1" edge="1">
          <mxGeometry width="50" height="50" relative="1" as="geometry">
            <mxPoint x="50" y="940" as="sourcePoint" />
            <mxPoint x="190" y="940" as="targetPoint" />
          </mxGeometry>
        </mxCell>
        <mxCell id="MqyxkdWR4Al2x5i4BDs6-41" value="New Game" style="rounded=1;whiteSpace=wrap;html=1;" parent="1" vertex="1">
          <mxGeometry x="100" y="260" width="110" height="40" as="geometry" />
        </mxCell>
        <mxCell id="MqyxkdWR4Al2x5i4BDs6-42" value="Continue Game" style="rounded=1;whiteSpace=wrap;html=1;" parent="1" vertex="1">
          <mxGeometry x="100" y="340" width="110" height="40" as="geometry" />
        </mxCell>
        <mxCell id="MqyxkdWR4Al2x5i4BDs6-44" value="Press Play" style="text;html=1;align=center;verticalAlign=middle;resizable=0;points=[];autosize=1;strokeColor=none;fillColor=none;" parent="1" vertex="1">
          <mxGeometry x="-260" y="308" width="80" height="30" as="geometry" />
        </mxCell>
        <mxCell id="MqyxkdWR4Al2x5i4BDs6-46" value="Press Settings" style="text;html=1;align=center;verticalAlign=middle;resizable=0;points=[];autosize=1;strokeColor=none;fillColor=none;" parent="1" vertex="1">
          <mxGeometry x="-270" y="720" width="100" height="30" as="geometry" />
        </mxCell>
        <mxCell id="MqyxkdWR4Al2x5i4BDs6-101" style="edgeStyle=orthogonalEdgeStyle;rounded=0;orthogonalLoop=1;jettySize=auto;html=1;entryX=0;entryY=0.5;entryDx=0;entryDy=0;" parent="1" source="MqyxkdWR4Al2x5i4BDs6-47" target="MqyxkdWR4Al2x5i4BDs6-54" edge="1">
          <mxGeometry relative="1" as="geometry" />
        </mxCell>
        <mxCell id="MqyxkdWR4Al2x5i4BDs6-47" value="" style="rounded=0;whiteSpace=wrap;html=1;" parent="1" vertex="1">
          <mxGeometry x="-820" y="1220" width="530" height="330" as="geometry" />
        </mxCell>
        <mxCell id="MqyxkdWR4Al2x5i4BDs6-48" value="Game Paused" style="text;html=1;align=center;verticalAlign=middle;whiteSpace=wrap;rounded=0;" parent="1" vertex="1">
          <mxGeometry x="-622.5" y="1240" width="135" height="30" as="geometry" />
        </mxCell>
        <mxCell id="MqyxkdWR4Al2x5i4BDs6-49" value="Continue" style="rounded=1;whiteSpace=wrap;html=1;" parent="1" vertex="1">
          <mxGeometry x="-630" y="1280" width="150" height="40" as="geometry" />
        </mxCell>
        <mxCell id="MqyxkdWR4Al2x5i4BDs6-51" value="Review Concepts" style="rounded=1;whiteSpace=wrap;html=1;" parent="1" vertex="1">
          <mxGeometry x="-630" y="1350" width="150" height="40" as="geometry" />
        </mxCell>
        <mxCell id="MqyxkdWR4Al2x5i4BDs6-52" value="Settings" style="rounded=1;whiteSpace=wrap;html=1;" parent="1" vertex="1">
          <mxGeometry x="-630" y="1420" width="150" height="40" as="geometry" />
        </mxCell>
        <mxCell id="MqyxkdWR4Al2x5i4BDs6-53" value="Save &amp;amp; Quit" style="rounded=1;whiteSpace=wrap;html=1;" parent="1" vertex="1">
          <mxGeometry x="-630" y="1480" width="150" height="40" as="geometry" />
        </mxCell>
        <mxCell id="MqyxkdWR4Al2x5i4BDs6-103" style="edgeStyle=orthogonalEdgeStyle;rounded=0;orthogonalLoop=1;jettySize=auto;html=1;" parent="1" source="MqyxkdWR4Al2x5i4BDs6-54" edge="1">
          <mxGeometry relative="1" as="geometry">
            <mxPoint x="155" y="1670" as="targetPoint" />
          </mxGeometry>
        </mxCell>
        <mxCell id="MqyxkdWR4Al2x5i4BDs6-104" value="Select Concept" style="edgeLabel;html=1;align=center;verticalAlign=middle;resizable=0;points=[];" parent="MqyxkdWR4Al2x5i4BDs6-103" vertex="1" connectable="0">
          <mxGeometry x="-0.0698" relative="1" as="geometry">
            <mxPoint as="offset" />
          </mxGeometry>
        </mxCell>
        <mxCell id="EGTBekORZ1UhYitRd--_-3" style="edgeStyle=orthogonalEdgeStyle;rounded=0;orthogonalLoop=1;jettySize=auto;html=1;exitX=0;exitY=0.75;exitDx=0;exitDy=0;entryX=1;entryY=0.75;entryDx=0;entryDy=0;" edge="1" parent="1" source="MqyxkdWR4Al2x5i4BDs6-54" target="MqyxkdWR4Al2x5i4BDs6-47">
          <mxGeometry relative="1" as="geometry" />
        </mxCell>
        <mxCell id="EGTBekORZ1UhYitRd--_-4" value="Back Button" style="edgeLabel;html=1;align=center;verticalAlign=middle;resizable=0;points=[];" vertex="1" connectable="0" parent="EGTBekORZ1UhYitRd--_-3">
          <mxGeometry x="0.0222" y="-1" relative="1" as="geometry">
            <mxPoint x="-1" as="offset" />
          </mxGeometry>
        </mxCell>
        <mxCell id="MqyxkdWR4Al2x5i4BDs6-54" value="" style="rounded=0;whiteSpace=wrap;html=1;" parent="1" vertex="1">
          <mxGeometry x="-110" y="1220" width="530" height="330" as="geometry" />
        </mxCell>
        <mxCell id="MqyxkdWR4Al2x5i4BDs6-56" value="" style="endArrow=none;html=1;rounded=0;entryX=1;entryY=0.158;entryDx=0;entryDy=0;entryPerimeter=0;exitX=-0.001;exitY=0.149;exitDx=0;exitDy=0;exitPerimeter=0;" parent="1" source="MqyxkdWR4Al2x5i4BDs6-54" target="MqyxkdWR4Al2x5i4BDs6-54" edge="1">
          <mxGeometry width="50" height="50" relative="1" as="geometry">
            <mxPoint x="50" y="1270" as="sourcePoint" />
            <mxPoint x="280" y="1270" as="targetPoint" />
          </mxGeometry>
        </mxCell>
        <mxCell id="MqyxkdWR4Al2x5i4BDs6-57" value="&lt;font style=&quot;font-size: 24px;&quot;&gt;Review Concepts&lt;/font&gt;" style="text;html=1;align=center;verticalAlign=middle;whiteSpace=wrap;rounded=0;" parent="1" vertex="1">
          <mxGeometry x="-20" y="1220" width="330" height="50" as="geometry" />
        </mxCell>
        <mxCell id="MqyxkdWR4Al2x5i4BDs6-58" value="" style="rounded=1;whiteSpace=wrap;html=1;" parent="1" vertex="1">
          <mxGeometry x="-110" y="1220" width="60" height="50" as="geometry" />
        </mxCell>
        <mxCell id="MqyxkdWR4Al2x5i4BDs6-59" value="" style="shape=singleArrow;direction=west;whiteSpace=wrap;html=1;" parent="1" vertex="1">
          <mxGeometry x="-105" y="1222.5" width="45" height="45" as="geometry" />
        </mxCell>
        <mxCell id="MqyxkdWR4Al2x5i4BDs6-61" style="edgeStyle=orthogonalEdgeStyle;rounded=0;orthogonalLoop=1;jettySize=auto;html=1;entryX=0.5;entryY=0;entryDx=0;entryDy=0;" parent="1" source="MqyxkdWR4Al2x5i4BDs6-60" target="MqyxkdWR4Al2x5i4BDs6-58" edge="1">
          <mxGeometry relative="1" as="geometry" />
        </mxCell>
        <mxCell id="MqyxkdWR4Al2x5i4BDs6-60" value="Back Button" style="text;html=1;align=center;verticalAlign=middle;whiteSpace=wrap;rounded=0;" parent="1" vertex="1">
          <mxGeometry x="-180" y="1170" width="60" height="30" as="geometry" />
        </mxCell>
        <mxCell id="MqyxkdWR4Al2x5i4BDs6-62" value="" style="rounded=0;whiteSpace=wrap;html=1;" parent="1" vertex="1">
          <mxGeometry x="-110" y="1680" width="530" height="330" as="geometry" />
        </mxCell>
        <mxCell id="MqyxkdWR4Al2x5i4BDs6-63" value="" style="endArrow=none;html=1;rounded=0;entryX=1;entryY=0.158;entryDx=0;entryDy=0;entryPerimeter=0;exitX=-0.001;exitY=0.149;exitDx=0;exitDy=0;exitPerimeter=0;" parent="1" source="MqyxkdWR4Al2x5i4BDs6-62" target="MqyxkdWR4Al2x5i4BDs6-62" edge="1">
          <mxGeometry width="50" height="50" relative="1" as="geometry">
            <mxPoint x="50" y="1730" as="sourcePoint" />
            <mxPoint x="280" y="1730" as="targetPoint" />
          </mxGeometry>
        </mxCell>
        <mxCell id="MqyxkdWR4Al2x5i4BDs6-64" value="&lt;font style=&quot;font-size: 24px;&quot;&gt;Review Concepts&lt;/font&gt;" style="text;html=1;align=center;verticalAlign=middle;whiteSpace=wrap;rounded=0;" parent="1" vertex="1">
          <mxGeometry x="-20" y="1680" width="330" height="50" as="geometry" />
        </mxCell>
        <mxCell id="MqyxkdWR4Al2x5i4BDs6-65" value="" style="rounded=1;whiteSpace=wrap;html=1;" parent="1" vertex="1">
          <mxGeometry x="-110" y="1680" width="60" height="50" as="geometry" />
        </mxCell>
        <mxCell id="MqyxkdWR4Al2x5i4BDs6-66" value="" style="shape=singleArrow;direction=west;whiteSpace=wrap;html=1;" parent="1" vertex="1">
          <mxGeometry x="-105" y="1682.5" width="45" height="45" as="geometry" />
        </mxCell>
        <mxCell id="MqyxkdWR4Al2x5i4BDs6-67" value="" style="endArrow=none;html=1;rounded=0;" parent="1" edge="1">
          <mxGeometry width="50" height="50" relative="1" as="geometry">
            <mxPoint x="400" y="1550" as="sourcePoint" />
            <mxPoint x="400" y="1280" as="targetPoint" />
          </mxGeometry>
        </mxCell>
        <mxCell id="MqyxkdWR4Al2x5i4BDs6-68" value="" style="endArrow=none;html=1;rounded=0;" parent="1" edge="1">
          <mxGeometry width="50" height="50" relative="1" as="geometry">
            <mxPoint x="400" y="2010" as="sourcePoint" />
            <mxPoint x="400" y="1740" as="targetPoint" />
          </mxGeometry>
        </mxCell>
        <mxCell id="MqyxkdWR4Al2x5i4BDs6-76" value="" style="group" parent="1" vertex="1" connectable="0">
          <mxGeometry x="395" y="1730" width="25" height="40" as="geometry" />
        </mxCell>
        <mxCell id="MqyxkdWR4Al2x5i4BDs6-77" value="" style="rounded=0;whiteSpace=wrap;html=1;" parent="MqyxkdWR4Al2x5i4BDs6-76" vertex="1">
          <mxGeometry width="25" height="40" as="geometry" />
        </mxCell>
        <mxCell id="MqyxkdWR4Al2x5i4BDs6-78" value="" style="endArrow=none;html=1;rounded=0;entryX=1;entryY=0.25;entryDx=0;entryDy=0;" parent="MqyxkdWR4Al2x5i4BDs6-76" target="MqyxkdWR4Al2x5i4BDs6-77" edge="1">
          <mxGeometry width="50" height="50" relative="1" as="geometry">
            <mxPoint y="10" as="sourcePoint" />
            <mxPoint x="62.5" y="-40" as="targetPoint" />
          </mxGeometry>
        </mxCell>
        <mxCell id="MqyxkdWR4Al2x5i4BDs6-79" value="" style="endArrow=none;html=1;rounded=0;" parent="MqyxkdWR4Al2x5i4BDs6-76" edge="1">
          <mxGeometry width="50" height="50" relative="1" as="geometry">
            <mxPoint x="12.5" y="20" as="sourcePoint" />
            <mxPoint x="12.5" y="20" as="targetPoint" />
          </mxGeometry>
        </mxCell>
        <mxCell id="MqyxkdWR4Al2x5i4BDs6-80" style="edgeStyle=orthogonalEdgeStyle;rounded=0;orthogonalLoop=1;jettySize=auto;html=1;exitX=0;exitY=0.5;exitDx=0;exitDy=0;entryX=1;entryY=0.5;entryDx=0;entryDy=0;endArrow=none;startFill=0;" parent="MqyxkdWR4Al2x5i4BDs6-76" source="MqyxkdWR4Al2x5i4BDs6-77" target="MqyxkdWR4Al2x5i4BDs6-77" edge="1">
          <mxGeometry relative="1" as="geometry" />
        </mxCell>
        <mxCell id="MqyxkdWR4Al2x5i4BDs6-81" style="edgeStyle=orthogonalEdgeStyle;rounded=0;orthogonalLoop=1;jettySize=auto;html=1;exitX=0;exitY=0.75;exitDx=0;exitDy=0;entryX=1;entryY=0.75;entryDx=0;entryDy=0;endArrow=none;startFill=0;" parent="MqyxkdWR4Al2x5i4BDs6-76" source="MqyxkdWR4Al2x5i4BDs6-77" target="MqyxkdWR4Al2x5i4BDs6-77" edge="1">
          <mxGeometry relative="1" as="geometry" />
        </mxCell>
        <mxCell id="MqyxkdWR4Al2x5i4BDs6-82" value="" style="group" parent="1" vertex="1" connectable="0">
          <mxGeometry x="395" y="1270" width="25" height="40" as="geometry" />
        </mxCell>
        <mxCell id="MqyxkdWR4Al2x5i4BDs6-83" value="" style="rounded=0;whiteSpace=wrap;html=1;" parent="MqyxkdWR4Al2x5i4BDs6-82" vertex="1">
          <mxGeometry width="25" height="40" as="geometry" />
        </mxCell>
        <mxCell id="MqyxkdWR4Al2x5i4BDs6-84" value="" style="endArrow=none;html=1;rounded=0;entryX=1;entryY=0.25;entryDx=0;entryDy=0;" parent="MqyxkdWR4Al2x5i4BDs6-82" target="MqyxkdWR4Al2x5i4BDs6-83" edge="1">
          <mxGeometry width="50" height="50" relative="1" as="geometry">
            <mxPoint y="10" as="sourcePoint" />
            <mxPoint x="62.5" y="-40" as="targetPoint" />
          </mxGeometry>
        </mxCell>
        <mxCell id="MqyxkdWR4Al2x5i4BDs6-85" value="" style="endArrow=none;html=1;rounded=0;" parent="MqyxkdWR4Al2x5i4BDs6-82" edge="1">
          <mxGeometry width="50" height="50" relative="1" as="geometry">
            <mxPoint x="12.5" y="20" as="sourcePoint" />
            <mxPoint x="12.5" y="20" as="targetPoint" />
          </mxGeometry>
        </mxCell>
        <mxCell id="MqyxkdWR4Al2x5i4BDs6-86" style="edgeStyle=orthogonalEdgeStyle;rounded=0;orthogonalLoop=1;jettySize=auto;html=1;exitX=0;exitY=0.5;exitDx=0;exitDy=0;entryX=1;entryY=0.5;entryDx=0;entryDy=0;endArrow=none;startFill=0;" parent="MqyxkdWR4Al2x5i4BDs6-82" source="MqyxkdWR4Al2x5i4BDs6-83" target="MqyxkdWR4Al2x5i4BDs6-83" edge="1">
          <mxGeometry relative="1" as="geometry" />
        </mxCell>
        <mxCell id="MqyxkdWR4Al2x5i4BDs6-87" style="edgeStyle=orthogonalEdgeStyle;rounded=0;orthogonalLoop=1;jettySize=auto;html=1;exitX=0;exitY=0.75;exitDx=0;exitDy=0;entryX=1;entryY=0.75;entryDx=0;entryDy=0;endArrow=none;startFill=0;" parent="MqyxkdWR4Al2x5i4BDs6-82" source="MqyxkdWR4Al2x5i4BDs6-83" target="MqyxkdWR4Al2x5i4BDs6-83" edge="1">
          <mxGeometry relative="1" as="geometry" />
        </mxCell>
        <mxCell id="MqyxkdWR4Al2x5i4BDs6-90" style="edgeStyle=orthogonalEdgeStyle;rounded=0;orthogonalLoop=1;jettySize=auto;html=1;exitX=0;exitY=0.5;exitDx=0;exitDy=0;" parent="1" source="MqyxkdWR4Al2x5i4BDs6-88" edge="1">
          <mxGeometry relative="1" as="geometry">
            <mxPoint x="420" y="1294.6666666666665" as="targetPoint" />
          </mxGeometry>
        </mxCell>
        <mxCell id="MqyxkdWR4Al2x5i4BDs6-88" value="Scroll Bar" style="text;html=1;align=center;verticalAlign=middle;whiteSpace=wrap;rounded=0;" parent="1" vertex="1">
          <mxGeometry x="470" y="1280" width="60" height="30" as="geometry" />
        </mxCell>
        <mxCell id="MqyxkdWR4Al2x5i4BDs6-92" value="Logic Gates" style="rounded=1;whiteSpace=wrap;html=1;" parent="1" vertex="1">
          <mxGeometry x="50" y="1290" width="190" height="40" as="geometry" />
        </mxCell>
        <mxCell id="MqyxkdWR4Al2x5i4BDs6-93" value="Binary Numbers" style="rounded=1;whiteSpace=wrap;html=1;" parent="1" vertex="1">
          <mxGeometry x="50" y="1350" width="190" height="40" as="geometry" />
        </mxCell>
        <mxCell id="MqyxkdWR4Al2x5i4BDs6-94" value="Memory Management" style="rounded=1;whiteSpace=wrap;html=1;" parent="1" vertex="1">
          <mxGeometry x="50" y="1410" width="190" height="40" as="geometry" />
        </mxCell>
        <mxCell id="MqyxkdWR4Al2x5i4BDs6-95" value="&lt;font style=&quot;font-size: 20px;&quot;&gt;.&lt;/font&gt;&lt;div&gt;&lt;font style=&quot;font-size: 20px;&quot;&gt;.&lt;/font&gt;&lt;/div&gt;&lt;div&gt;&lt;font style=&quot;font-size: 20px;&quot;&gt;.&lt;/font&gt;&lt;/div&gt;" style="text;html=1;align=center;verticalAlign=middle;whiteSpace=wrap;rounded=0;" parent="1" vertex="1">
          <mxGeometry x="30" y="1465" width="60" height="70" as="geometry" />
        </mxCell>
        <mxCell id="MqyxkdWR4Al2x5i4BDs6-97" value="&lt;font style=&quot;font-size: 16px;&quot;&gt;Info&lt;/font&gt;" style="rounded=0;whiteSpace=wrap;html=1;" parent="1" vertex="1">
          <mxGeometry x="60" y="1760" width="310" height="130" as="geometry" />
        </mxCell>
        <mxCell id="MqyxkdWR4Al2x5i4BDs6-98" value="&lt;font style=&quot;font-size: 20px;&quot;&gt;&lt;u&gt;AND Gates&lt;/u&gt;&lt;/font&gt;" style="text;html=1;align=center;verticalAlign=middle;whiteSpace=wrap;rounded=0;" parent="1" vertex="1">
          <mxGeometry x="-90" y="1760" width="110" height="40" as="geometry" />
        </mxCell>
        <mxCell id="MqyxkdWR4Al2x5i4BDs6-99" value="&lt;font style=&quot;font-size: 20px;&quot;&gt;&lt;u&gt;OR Gates&lt;/u&gt;&lt;/font&gt;" style="text;html=1;align=center;verticalAlign=middle;whiteSpace=wrap;rounded=0;" parent="1" vertex="1">
          <mxGeometry x="-90" y="1920" width="110" height="40" as="geometry" />
        </mxCell>
        <mxCell id="MqyxkdWR4Al2x5i4BDs6-100" value="Info" style="rounded=0;whiteSpace=wrap;html=1;" parent="1" vertex="1">
          <mxGeometry x="60" y="1930" width="310" height="80" as="geometry" />
        </mxCell>
        <mxCell id="MqyxkdWR4Al2x5i4BDs6-102" value="Review Concepts" style="text;html=1;align=center;verticalAlign=middle;whiteSpace=wrap;rounded=0;" parent="1" vertex="1">
          <mxGeometry x="-250" y="1350" width="100" height="30" as="geometry" />
        </mxCell>
        <mxCell id="EGTBekORZ1UhYitRd--_-1" style="edgeStyle=orthogonalEdgeStyle;rounded=0;orthogonalLoop=1;jettySize=auto;html=1;entryX=0.056;entryY=0.994;entryDx=0;entryDy=0;entryPerimeter=0;" edge="1" parent="1" source="MqyxkdWR4Al2x5i4BDs6-65" target="MqyxkdWR4Al2x5i4BDs6-54">
          <mxGeometry relative="1" as="geometry" />
        </mxCell>
        <mxCell id="EGTBekORZ1UhYitRd--_-2" value="Back button" style="edgeLabel;html=1;align=center;verticalAlign=middle;resizable=0;points=[];" vertex="1" connectable="0" parent="EGTBekORZ1UhYitRd--_-1">
          <mxGeometry x="0.0111" y="3" relative="1" as="geometry">
            <mxPoint as="offset" />
          </mxGeometry>
        </mxCell>
      </root>
    </mxGraphModel>
  </diagram>
</mxfile>
